<svg width="280" height="180" viewBox="0 0 280 180" xmlns="http://www.w3.org/2000/svg">
  <style>
    .circle { fill: #3f51b5; }
    .line { stroke: #ccc; stroke-width: 2; }
    .icon-fill { fill: #fff; }
  </style>

  <!-- Left: User Profile -->
  <circle cx="40" cy="90" r="25" class="circle" />
  <circle cx="40" cy="82" r="6" class="icon-fill" />
  <path d="M32 95a8 8 0 0 1 16 0v2h-16v-2z" class="icon-fill" />

  <!-- Center: Lock with smaller shackle height (arch height reduced by 3px) -->
  <circle cx="140" cy="90" r="30" class="circle" />
  <!-- Shackle: height reduced from v-6 to v-3 -->
  <path d="M133 90v-3a7 7 0 1 1 14 0v3" fill="none" stroke="#fff" stroke-width="2" />
  <!-- Lock body -->
  <rect x="131" y="90" width="18" height="10" rx="2" class="icon-fill" />

  <!-- Right Top Console -->
  <circle cx="240" cy="45" r="20" class="circle" />
  <rect x="228" y="35" width="24" height="18" rx="2" class="icon-fill" />
  <circle cx="230" cy="38" r="1.5" fill="#3f51b5" />
  <circle cx="235" cy="38" r="1.5" fill="#3f51b5" />
  <circle cx="240" cy="38" r="1.5" fill="#3f51b5" />

  <!-- Right Middle Console -->
  <circle cx="240" cy="90" r="20" class="circle" />
  <rect x="228" y="80" width="24" height="18" rx="2" class="icon-fill" />
  <circle cx="230" cy="83" r="1.5" fill="#3f51b5" />
  <circle cx="235" cy="83" r="1.5" fill="#3f51b5" />
  <circle cx="240" cy="83" r="1.5" fill="#3f51b5" />

  <!-- Right Bottom Console -->
  <circle cx="240" cy="135" r="20" class="circle" />
  <rect x="228" y="125" width="24" height="18" rx="2" class="icon-fill" />
  <circle cx="230" cy="128" r="1.5" fill="#3f51b5" />
  <circle cx="235" cy="128" r="1.5" fill="#3f51b5" />
  <circle cx="240" cy="128" r="1.5" fill="#3f51b5" />

  <!-- Connecting Lines -->
  <line x1="65" y1="90" x2="110" y2="90" class="line" />
  <line x1="170" y1="90" x2="220" y2="45" class="line" />
  <line x1="170" y1="90" x2="220" y2="90" class="line" />
  <line x1="170" y1="90" x2="220" y2="135" class="line" />
</svg>
