<?xml version="1.0" encoding="utf-8" ?>
<svg baseProfile="full" height="1024" version="1.1" width="1536" xmlns="http://www.w3.org/2000/svg" xmlns:ev="http://www.w3.org/2001/xml-events" xmlns:xlink="http://www.w3.org/1999/xlink"><defs /><polygon fill="white" points="991,496 990,497 986,497 985,498 983,498 982,499 981,499 980,500 979,500 977,502 976,502 951,527 951,528 950,529 949,529 949,530 946,533 945,533 944,534 944,535 793,686 792,686 791,685 790,685 789,684 788,684 787,683 786,683 785,682 784,682 783,681 782,681 781,680 780,680 779,679 778,679 777,678 775,678 774,677 773,677 772,676 770,676 769,675 767,675 766,674 764,674 763,673 760,673 759,672 756,672 755,671 751,671 750,670 745,670 744,669 735,669 734,668 719,668 718,669 708,669 707,670 702,670 701,671 697,671 696,672 693,672 692,673 689,673 688,674 686,674 685,675 683,675 682,676 680,676 679,677 678,677 677,678 675,678 674,679 673,679 672,680 670,680 669,681 668,681 667,682 666,682 665,683 664,683 663,684 662,684 660,686 659,686 658,687 657,687 656,688 655,688 653,690 652,690 650,692 649,692 647,694 646,694 643,697 642,697 637,702 636,702 623,715 623,716 619,720 619,721 616,724 616,725 614,727 614,728 612,730 612,731 610,733 610,734 608,736 608,737 607,738 607,739 606,740 606,741 605,742 605,743 604,744 604,745 603,746 603,747 602,748 602,749 601,750 601,752 600,753 600,754 599,755 599,757 598,758 598,760 597,761 597,763 596,764 596,766 595,767 595,770 594,771 594,774 593,775 593,779 592,780 592,785 591,786 591,796 590,797 590,809 591,810 591,820 592,821 592,826 593,827 593,832 594,833 594,836 595,837 595,840 596,841 596,843 597,844 597,846 598,847 598,849 599,850 599,852 600,853 600,855 601,856 601,857 602,858 602,859 603,860 603,862 604,863 604,864 605,865 605,866 606,867 606,868 608,870 608,871 609,872 609,873 610,874 610,875 612,877 612,878 614,880 614,881 616,883 616,884 619,887 619,888 623,892 623,893 636,906 637,906 642,911 643,911 646,914 647,914 649,916 650,916 652,918 653,918 655,920 656,920 657,921 658,921 659,922 660,922 662,924 663,924 664,925 665,925 666,926 667,926 668,927 669,927 670,928 671,928 672,929 674,929 675,930 676,930 677,931 679,931 680,932 682,932 683,933 685,933 686,934 688,934 689,935 691,935 692,936 695,936 696,937 700,937 701,938 705,938 706,939 713,939 714,940 738,940 739,939 747,939 748,938 752,938 753,937 757,937 758,936 761,936 762,935 764,935 765,934 768,934 769,933 771,933 772,932 774,932 775,931 776,931 777,930 779,930 780,929 781,929 782,928 783,928 784,927 785,927 786,926 787,926 788,925 789,925 790,924 791,924 792,923 793,923 794,922 795,922 797,920 798,920 799,919 800,919 802,917 803,917 805,915 806,915 809,912 810,912 815,907 816,907 830,893 830,892 834,888 834,887 837,884 837,883 840,880 840,879 841,878 841,877 843,875 843,874 845,872 845,871 846,870 846,869 847,868 847,867 848,866 848,865 849,864 849,863 850,862 850,861 851,860 851,859 852,858 852,857 853,856 853,854 854,853 854,852 855,851 855,849 856,848 856,846 857,845 857,843 858,842 858,839 859,838 859,835 860,834 860,830 861,829 861,825 862,824 862,818 863,817 863,790 862,789 862,782 861,781 861,776 860,775 860,772 859,771 859,768 858,767 858,765 857,764 857,761 856,760 856,759 855,758 855,756 854,755 854,753 853,752 853,751 852,750 852,749 851,748 898,701 898,700 900,698 900,697 901,696 901,689 902,688 902,676 933,645 935,645 936,646 937,646 938,647 940,647 941,648 951,648 952,647 953,647 976,624 976,623 978,621 978,620 979,619 979,618 980,617 980,608 979,607 979,605 978,604 978,603 977,602 977,601 988,590 989,591 990,591 991,592 992,592 993,593 995,593 996,594 1004,594 1005,593 1007,593 1008,592 1009,592 1024,577 1024,576 1025,575 1025,574 1026,573 1026,571 1027,570 1027,566 1026,565 1026,562 1025,561 1025,560 1024,559 1024,558 1022,556 1021,556 1019,554 1022,551 1022,550 1023,549 1023,548 1025,546 1025,544 1026,543 1026,542 1027,541 1027,537 1028,536 1028,527 1027,526 1027,523 1026,522 1026,520 1025,519 1025,517 1024,516 1024,515 1023,514 1023,513 1021,511 1021,510 1014,503 1013,503 1011,501 1010,501 1009,500 1008,500 1007,499 1006,499 1005,498 1003,498 1002,497 998,497 997,496" /><polygon fill="white" points="721,122 720,123 708,123 707,124 700,124 699,125 693,125 692,126 687,126 686,127 681,127 680,128 677,128 676,129 673,129 672,130 669,130 668,131 665,131 664,132 661,132 660,133 658,133 657,134 654,134 653,135 651,135 650,136 648,136 647,137 645,137 644,138 642,138 641,139 640,139 639,140 637,140 636,141 634,141 633,142 632,142 631,143 629,143 628,144 627,144 626,145 625,145 624,146 623,146 622,147 620,147 619,148 618,148 617,149 616,149 615,150 614,150 613,151 612,151 611,152 610,152 609,153 608,153 607,154 606,154 605,155 604,155 603,156 602,156 600,158 599,158 598,159 597,159 596,160 595,160 593,162 592,162 590,164 589,164 588,165 587,165 585,167 584,167 582,169 581,169 579,171 578,171 576,173 575,173 572,176 571,176 569,178 568,178 565,181 564,181 561,184 560,184 556,188 555,188 550,193 549,193 541,201 540,201 521,220 521,221 514,228 514,229 510,233 510,234 507,237 507,238 503,242 503,243 501,245 501,246 498,249 498,250 496,252 496,253 494,255 494,256 492,258 492,259 490,261 490,262 489,263 489,264 487,266 487,267 486,268 486,269 484,271 484,272 483,273 483,274 482,275 482,276 480,278 480,279 479,280 479,281 478,282 478,283 477,284 477,285 476,286 476,287 475,288 475,289 474,290 474,291 473,292 473,293 472,294 472,295 471,296 471,297 470,298 470,300 469,301 469,302 468,303 468,304 467,305 467,307 466,308 466,309 465,310 465,312 464,313 464,314 463,315 463,317 462,318 462,320 461,321 461,323 460,324 460,326 459,327 459,329 458,330 458,332 457,333 457,335 456,336 456,339 455,340 455,343 454,344 454,346 453,347 453,351 452,352 452,355 450,357 448,357 447,356 420,356 419,357 412,357 411,358 406,358 405,359 401,359 400,360 397,360 396,361 394,361 393,362 390,362 389,363 387,363 386,364 385,364 384,365 382,365 381,366 379,366 378,367 377,367 376,368 375,368 374,369 372,369 371,370 370,370 369,371 368,371 367,372 366,372 365,373 364,373 363,374 362,374 361,375 360,375 358,377 357,377 356,378 355,378 353,380 352,380 350,382 349,382 347,384 346,384 344,386 343,386 340,389 339,389 336,392 335,392 331,396 330,396 309,417 309,418 305,422 305,423 302,426 302,427 299,430 299,431 297,433 297,434 295,436 295,437 294,438 294,439 292,441 292,442 291,443 291,444 289,446 289,447 288,448 288,449 287,450 287,451 286,452 286,453 285,454 285,455 284,456 284,457 283,458 283,459 282,460 282,461 281,462 281,463 280,464 280,465 279,466 279,468 278,469 278,470 277,471 277,473 276,474 276,475 275,476 275,478 273,480 272,479 271,479 270,478 268,478 267,477 266,477 265,476 263,476 262,475 260,475 259,474 256,474 255,473 251,473 250,472 245,472 244,471 227,471 226,472 220,472 219,473 214,473 213,474 210,474 209,475 207,475 206,476 203,476 202,477 200,477 199,478 198,478 197,479 195,479 194,480 193,480 192,481 191,481 190,482 189,482 188,483 187,483 186,484 185,484 184,485 183,485 181,487 180,487 178,489 177,489 175,491 174,491 172,493 171,493 167,497 166,497 157,506 156,506 156,507 148,515 148,516 145,519 145,520 143,522 143,523 141,525 141,526 139,528 139,529 138,530 138,531 137,532 137,533 136,534 136,535 135,536 135,537 134,538 134,539 133,540 133,541 132,542 132,543 131,544 131,546 130,547 130,548 129,549 129,551 128,552 128,554 127,555 127,557 126,558 126,561 125,562 125,565 124,566 124,571 123,572 123,579 122,580 122,602 123,603 123,610 124,611 124,615 125,616 125,620 126,621 126,624 127,625 127,627 128,628 128,630 129,631 129,633 130,634 130,635 131,636 131,638 132,639 132,640 133,641 133,643 134,644 134,645 135,646 135,647 136,648 136,649 138,651 138,652 139,653 139,654 140,655 140,656 142,658 142,659 144,661 144,662 146,664 146,665 149,668 149,669 155,675 155,676 161,682 162,682 168,688 169,688 172,691 173,691 175,693 176,693 178,695 179,695 181,697 182,697 183,698 184,698 185,699 186,699 187,700 188,700 189,701 190,701 191,702 192,702 193,703 194,703 195,704 197,704 198,705 200,705 201,706 203,706 204,707 206,707 207,708 210,708 211,709 215,709 216,710 222,710 223,711 550,711 550,653 227,653 226,652 222,652 221,651 218,651 217,650 216,650 215,649 213,649 212,648 211,648 209,646 208,646 207,645 206,645 204,643 203,643 191,631 191,630 188,627 188,626 186,624 186,623 185,622 185,621 184,620 184,619 183,618 183,617 182,616 182,614 181,613 181,612 180,611 180,608 179,607 179,603 178,602 178,584 179,583 179,578 180,577 180,575 181,574 181,572 182,571 182,569 183,568 183,567 184,566 184,565 185,564 185,563 186,562 186,561 187,560 187,559 189,557 189,556 191,554 191,553 196,548 196,547 199,544 200,544 205,539 206,539 208,537 209,537 210,536 211,536 212,535 213,535 214,534 215,534 216,533 217,533 218,532 220,532 221,531 223,531 224,530 227,530 228,529 232,529 233,528 245,528 246,529 251,529 252,530 254,530 255,531 257,531 258,532 260,532 261,533 262,533 263,534 264,534 266,536 267,536 269,538 270,538 273,541 274,541 278,545 279,545 283,549 284,549 289,554 290,554 294,558 295,558 299,562 300,562 305,567 306,567 310,571 311,571 315,575 316,575 320,579 320,574 321,573 321,548 322,547 322,531 323,530 323,522 324,521 324,516 325,515 325,511 326,510 326,507 327,506 327,503 328,502 328,500 329,499 329,497 330,496 330,494 331,493 331,492 332,491 332,489 333,488 333,487 334,486 334,485 335,484 335,483 336,482 336,481 337,480 337,479 338,478 338,477 339,476 339,475 340,474 340,473 342,471 342,470 344,468 344,467 346,465 346,464 348,462 348,461 352,457 352,456 369,439 370,439 374,435 375,435 377,433 378,433 380,431 381,431 383,429 384,429 385,428 386,428 388,426 389,426 390,425 391,425 392,424 393,424 394,423 395,423 396,422 398,422 399,421 400,421 401,420 403,420 404,419 405,419 406,418 408,418 409,417 412,417 413,416 415,416 416,415 420,415 421,414 425,414 426,413 432,413 433,412 453,412 454,413 462,413 463,414 467,414 468,415 472,415 473,416 477,416 478,417 481,417 482,418 485,418 486,419 488,419 489,420 492,420 493,421 495,421 496,422 498,422 499,423 501,423 501,414 502,413 502,402 503,401 503,394 504,393 504,387 505,386 505,382 506,381 506,377 507,376 507,372 508,371 508,368 509,367 509,364 510,363 510,360 511,359 511,357 512,356 512,353 513,352 513,350 514,349 514,347 515,346 515,344 516,343 516,341 517,340 517,339 518,338 518,336 519,335 519,333 520,332 520,331 521,330 521,328 522,327 522,326 523,325 523,324 524,323 524,322 525,321 525,319 526,318 526,317 527,316 527,315 528,314 528,313 529,312 529,311 530,310 530,309 531,308 531,307 533,305 533,304 534,303 534,302 535,301 535,300 536,299 536,298 538,296 538,295 540,293 540,292 541,291 541,290 543,288 543,287 545,285 545,284 548,281 548,280 550,278 550,277 553,274 553,273 557,269 557,268 563,262 563,261 590,234 591,234 596,229 597,229 600,226 601,226 605,222 606,222 608,220 609,220 611,218 612,218 614,216 615,216 617,214 618,214 620,212 621,212 623,210 624,210 625,209 626,209 628,207 629,207 630,206 631,206 632,205 633,205 634,204 635,204 636,203 637,203 639,201 640,201 641,200 643,200 644,199 645,199 646,198 647,198 648,197 649,197 650,196 651,196 652,195 654,195 655,194 656,194 657,193 659,193 660,192 662,192 663,191 665,191 666,190 668,190 669,189 671,189 672,188 674,188 675,187 678,187 679,186 682,186 683,185 686,185 687,184 690,184 691,183 696,183 697,182 702,182 703,181 709,181 710,180 720,180 721,179 742,179 743,178 744,179 765,179 766,180 773,180 774,181 780,181 781,182 785,182 786,183 790,183 791,184 794,184 795,185 798,185 799,186 802,186 803,187 805,187 806,188 808,188 809,189 811,189 812,190 814,190 815,191 817,191 818,192 819,192 820,193 822,193 823,194 824,194 825,195 827,195 828,196 829,196 830,197 831,197 832,198 833,198 834,199 836,199 837,200 838,200 839,201 840,201 841,202 842,202 843,203 844,203 845,204 846,204 847,205 848,205 850,207 851,207 852,208 853,208 854,209 855,209 857,211 858,211 859,212 860,212 862,214 863,214 865,216 866,216 867,217 868,217 870,219 871,219 874,222 875,222 877,224 878,224 881,227 882,227 885,230 886,230 890,234 891,234 896,239 897,239 923,265 923,266 927,270 927,271 931,275 931,276 933,278 933,279 936,282 936,283 938,285 938,286 940,288 940,289 942,291 942,292 943,293 943,294 945,296 945,297 946,298 946,299 948,301 948,302 949,303 949,304 950,305 950,306 951,307 951,308 953,310 953,311 954,312 954,313 955,314 955,315 956,316 956,317 957,318 957,319 958,320 958,321 959,322 959,324 960,325 960,326 961,327 961,328 962,329 962,330 963,331 963,333 964,334 964,335 965,336 965,338 966,339 966,341 967,342 967,344 968,345 968,346 969,347 969,350 970,351 970,353 971,354 971,356 972,357 972,360 973,361 973,363 974,364 974,367 975,368 975,372 976,373 976,377 977,378 977,382 978,383 978,388 979,389 979,394 980,395 980,401 981,402 981,407 982,407 983,406 985,406 986,405 987,405 988,404 989,404 990,403 992,403 993,402 994,402 995,401 997,401 998,400 1000,400 1001,399 1002,399 1003,398 1005,398 1006,397 1008,397 1009,396 1011,396 1012,395 1014,395 1015,394 1017,394 1018,393 1020,393 1021,392 1023,392 1024,391 1026,391 1027,390 1030,390 1031,389 1033,389 1034,388 1037,388 1038,387 1041,387 1042,386 1046,386 1047,385 1050,385 1051,384 1055,384 1056,383 1061,383 1062,382 1067,382 1068,381 1075,381 1076,380 1108,380 1109,381 1114,381 1115,382 1119,382 1120,383 1124,383 1125,384 1128,384 1129,385 1131,385 1132,386 1135,386 1136,387 1138,387 1139,388 1140,388 1141,389 1143,389 1144,390 1145,390 1146,391 1147,391 1148,392 1150,392 1151,393 1152,393 1153,394 1154,394 1155,395 1156,395 1158,397 1159,397 1160,398 1161,398 1163,400 1164,400 1166,402 1167,402 1169,404 1170,404 1173,407 1174,407 1178,411 1179,411 1191,423 1191,424 1195,428 1195,429 1198,432 1198,433 1200,435 1200,436 1202,438 1202,439 1203,440 1203,441 1205,443 1205,444 1206,445 1206,446 1207,447 1207,448 1208,449 1208,450 1209,451 1209,452 1210,453 1210,454 1211,455 1211,457 1212,458 1212,459 1213,460 1213,461 1214,462 1214,464 1215,465 1215,467 1216,468 1216,469 1217,470 1217,472 1218,473 1218,475 1219,476 1219,478 1220,479 1220,482 1221,483 1221,485 1222,486 1222,489 1223,490 1223,492 1224,493 1224,496 1225,497 1225,500 1226,501 1226,504 1227,505 1227,508 1228,509 1228,512 1229,513 1229,516 1230,517 1231,517 1232,516 1233,516 1234,515 1235,515 1237,513 1238,513 1239,512 1240,512 1242,510 1243,510 1244,509 1245,509 1246,508 1247,508 1249,506 1250,506 1251,505 1252,505 1253,504 1254,504 1256,502 1257,502 1258,501 1259,501 1260,500 1261,500 1263,498 1264,498 1265,497 1266,497 1267,496 1268,496 1270,494 1271,494 1272,493 1273,493 1274,492 1275,492 1276,491 1277,491 1278,490 1279,490 1280,489 1281,489 1282,488 1283,488 1285,486 1286,486 1287,485 1288,485 1289,484 1290,484 1291,483 1293,483 1294,482 1295,482 1296,481 1298,481 1299,480 1301,480 1302,479 1305,479 1306,478 1311,478 1312,477 1327,477 1328,478 1333,478 1334,479 1336,479 1337,480 1340,480 1341,481 1342,481 1343,482 1345,482 1346,483 1347,483 1348,484 1349,484 1350,485 1351,485 1352,486 1353,486 1355,488 1356,488 1357,489 1358,489 1361,492 1362,492 1365,495 1366,495 1380,509 1380,510 1382,512 1382,513 1384,515 1384,516 1385,517 1385,518 1387,520 1387,521 1388,522 1388,523 1389,524 1389,526 1390,527 1390,528 1391,529 1391,531 1392,532 1392,533 1393,534 1393,536 1394,537 1394,540 1395,541 1395,544 1396,545 1396,550 1397,551 1397,576 1396,577 1396,582 1395,583 1395,586 1394,587 1394,590 1393,591 1393,593 1392,594 1392,596 1391,597 1391,598 1390,599 1390,600 1389,601 1389,602 1388,603 1388,604 1387,605 1387,606 1386,607 1386,608 1384,610 1384,611 1383,612 1383,613 1380,616 1380,617 1377,620 1377,621 1361,637 1360,637 1357,640 1356,640 1354,642 1353,642 1352,643 1351,643 1349,645 1348,645 1347,646 1346,646 1345,647 1343,647 1342,648 1340,648 1339,649 1337,649 1336,650 1334,650 1333,651 1330,651 1329,652 1323,652 1322,653 1052,653 1052,711 1331,711 1332,710 1337,710 1338,709 1342,709 1343,708 1346,708 1347,707 1349,707 1350,706 1353,706 1354,705 1356,705 1357,704 1358,704 1359,703 1361,703 1362,702 1363,702 1364,701 1366,701 1367,700 1368,700 1369,699 1370,699 1371,698 1372,698 1373,697 1374,697 1376,695 1377,695 1378,694 1379,694 1380,693 1381,693 1383,691 1384,691 1387,688 1388,688 1391,685 1392,685 1396,681 1397,681 1419,659 1419,658 1423,654 1423,653 1426,650 1426,649 1428,647 1428,646 1430,644 1430,643 1432,641 1432,640 1433,639 1433,638 1434,637 1434,636 1436,634 1436,633 1437,632 1437,631 1438,630 1438,629 1439,628 1439,627 1440,626 1440,624 1441,623 1441,622 1442,621 1442,620 1443,619 1443,617 1444,616 1444,615 1445,614 1445,612 1446,611 1446,609 1447,608 1447,606 1448,605 1448,602 1449,601 1449,598 1450,597 1450,594 1451,593 1451,589 1452,588 1452,582 1453,581 1453,569 1454,568 1454,557 1453,556 1453,544 1452,543 1452,537 1451,536 1451,532 1450,531 1450,527 1449,526 1449,523 1448,522 1448,520 1447,519 1447,517 1446,516 1446,514 1445,513 1445,511 1444,510 1444,508 1443,507 1443,506 1442,505 1442,504 1441,503 1441,501 1440,500 1440,499 1439,498 1439,497 1438,496 1438,495 1437,494 1437,493 1435,491 1435,490 1434,489 1434,488 1432,486 1432,485 1430,483 1430,482 1428,480 1428,479 1426,477 1426,476 1422,472 1422,471 1418,467 1418,466 1404,452 1403,452 1399,448 1398,448 1395,445 1394,445 1392,443 1391,443 1389,441 1388,441 1386,439 1385,439 1383,437 1382,437 1381,436 1380,436 1379,435 1378,435 1377,434 1376,434 1375,433 1374,433 1373,432 1372,432 1371,431 1370,431 1369,430 1367,430 1366,429 1365,429 1364,428 1362,428 1361,427 1359,427 1358,426 1356,426 1355,425 1352,425 1351,424 1348,424 1347,423 1344,423 1343,422 1338,422 1337,421 1331,421 1330,420 1309,420 1308,421 1301,421 1300,422 1296,422 1295,423 1292,423 1291,424 1289,424 1288,425 1286,425 1285,426 1283,426 1282,427 1280,427 1279,428 1278,428 1277,429 1276,429 1275,430 1274,430 1273,431 1272,431 1271,432 1270,432 1269,433 1268,433 1267,434 1266,434 1265,435 1264,434 1264,433 1263,432 1263,431 1262,430 1262,429 1261,428 1261,427 1260,426 1260,425 1259,424 1259,423 1258,422 1258,421 1257,420 1257,419 1256,418 1256,417 1255,416 1255,415 1253,413 1253,412 1252,411 1252,410 1250,408 1250,407 1249,406 1249,405 1247,403 1247,402 1245,400 1245,399 1243,397 1243,396 1240,393 1240,392 1237,389 1237,388 1226,377 1226,376 1224,374 1223,374 1215,366 1214,366 1210,362 1209,362 1206,359 1205,359 1203,357 1202,357 1200,355 1199,355 1197,353 1196,353 1194,351 1193,351 1192,350 1191,350 1189,348 1188,348 1187,347 1186,347 1185,346 1184,346 1182,344 1181,344 1180,343 1179,343 1178,342 1177,342 1176,341 1175,341 1174,340 1172,340 1171,339 1170,339 1169,338 1168,338 1167,337 1165,337 1164,336 1163,336 1162,335 1160,335 1159,334 1157,334 1156,333 1154,333 1153,332 1151,332 1150,331 1147,331 1146,330 1144,330 1143,329 1140,329 1139,328 1135,328 1134,327 1130,327 1129,326 1125,326 1124,325 1118,325 1117,324 1109,324 1108,323 1075,323 1074,324 1066,324 1065,325 1059,325 1058,326 1053,326 1052,327 1048,327 1047,328 1043,328 1042,329 1038,329 1037,330 1034,330 1033,331 1030,331 1029,332 1027,332 1026,333 1024,331 1024,329 1023,328 1023,327 1022,326 1022,324 1021,323 1021,321 1020,320 1020,318 1019,317 1019,316 1018,315 1018,314 1017,313 1017,311 1016,310 1016,309 1015,308 1015,307 1014,306 1014,305 1013,304 1013,303 1012,302 1012,300 1011,299 1011,298 1010,297 1010,296 1009,295 1009,294 1008,293 1008,292 1007,291 1007,290 1005,288 1005,287 1004,286 1004,285 1003,284 1003,283 1002,282 1002,281 1001,280 1001,279 999,277 999,276 998,275 998,274 997,273 997,272 995,270 995,269 994,268 994,267 992,265 992,264 991,263 991,262 989,260 989,259 988,258 988,257 986,255 986,254 984,252 984,251 981,248 981,247 979,245 979,244 977,242 977,241 973,237 973,236 969,232 969,231 962,224 962,223 935,196 934,196 927,189 926,189 923,186 922,186 918,182 917,182 914,179 913,179 911,177 910,177 907,174 906,174 904,172 903,172 901,170 900,170 898,168 897,168 895,166 894,166 892,164 891,164 890,163 889,163 887,161 886,161 885,160 884,160 883,159 882,159 881,158 880,158 878,156 877,156 876,155 875,155 874,154 873,154 872,153 871,153 870,152 869,152 868,151 867,151 866,150 865,150 864,149 863,149 862,148 861,148 860,147 858,147 857,146 856,146 855,145 854,145 853,144 851,144 850,143 849,143 848,142 846,142 845,141 844,141 843,140 841,140 840,139 838,139 837,138 835,138 834,137 832,137 831,136 829,136 828,135 825,135 824,134 822,134 821,133 819,133 818,132 815,132 814,131 811,131 810,130 806,130 805,129 802,129 801,128 796,128 795,127 791,127 790,126 785,126 784,125 779,125 778,124 770,124 769,123 759,123 758,122" /></svg>